<svg width="200" height="200" viewBox="0 0 200 200" fill="none" xmlns="http://www.w3.org/2000/svg">
<path d="M200 100C200 155.228 155.228 200 100 200C44.7715 200 0 155.228 0 100C0 44.7715 44.7715 0 100 0C155.228 0 200 44.7715 200 100ZM16.9986 100C16.9986 145.84 54.1596 183.001 100 183.001C145.84 183.001 183.001 145.84 183.001 100C183.001 54.1596 145.84 16.9986 100 16.9986C54.1596 16.9986 16.9986 54.1596 16.9986 100Z" fill="white"/>
<path d="M56 93.2183L89.3908 126.609L143 73" stroke="white" stroke-width="12.2535" stroke-linecap="round"/>
</svg>
